<svg id="Capa_1" enable-background="new 0 0 512 512" height="512" viewBox="0 0 512 512" width="512" xmlns="http://www.w3.org/2000/svg"><g><g><path d="m392 330h-15c-41.353 0-75-33.647-75-75v-45h-40.884c-14.634 0-27.949-6.812-36.504-18.691s-10.811-26.66-6.167-40.547l39.99-120c6.138-18.399 23.292-30.762 42.686-30.762h51.094c32.373 0 64.087 10.62 89.941 30h69.844v150h-67.031c-6.826 9.961-13.066 18.457-18.691 26.118-23.541 32.066-34.278 46.699-34.278 97.046z"/></g><g><path d="m210.879 512h-51.094c-32.373 0-64.087-10.62-89.941-30h-69.844v-150h67.031c6.826-9.961 13.066-18.457 18.691-26.118 23.541-32.066 34.278-46.699 34.278-97.046v-26.836h15c41.353 0 75 33.647 75 75v45h40.884c14.634 0 27.949 6.812 36.504 18.677 8.555 11.88 10.811 26.66 6.196 40.562l-40.02 120c-6.137 18.398-23.291 30.761-42.685 30.761z"/></g></g></svg>